<mxfile host="app.diagrams.net" agent="Mozilla/5.0 (Windows NT 10.0; Win64; x64) AppleWebKit/537.36 (KHTML, like Gecko) Chrome/129.0.0.0 Safari/537.36" version="24.7.17">
  <diagram name="Page-1" id="HL4X7YWNVFFhGxuzqpKl">
    <mxGraphModel dx="1285" dy="586" grid="1" gridSize="10" guides="1" tooltips="1" connect="1" arrows="1" fold="1" page="1" pageScale="1" pageWidth="850" pageHeight="1100" math="0" shadow="0">
      <root>
        <mxCell id="0" />
        <mxCell id="1" parent="0" />
        <mxCell id="dMDlw6WgHVoqJ0Yb6kXA-2" value="amylin, или&amp;nbsp;&lt;span style=&quot;background-color: initial;&quot;&gt;(IAPP)&amp;nbsp;&lt;/span&gt;&lt;span style=&quot;background-color: initial;&quot;&gt;islet amyloid polypeptide&lt;/span&gt;&lt;div&gt;выбрасывается в эквимолярных&lt;/div&gt;&lt;div&gt;количествах вместе с инсулином&lt;/div&gt;&lt;div&gt;из гранул в-клеток ПЖ&lt;/div&gt;" style="rounded=1;whiteSpace=wrap;html=1;labelBackgroundColor=none;fillColor=#FAE5C7;strokeColor=#0F8B8D;fontColor=#143642;" vertex="1" parent="1">
          <mxGeometry x="277.5" y="540" width="290" height="100" as="geometry" />
        </mxCell>
        <mxCell id="dMDlw6WgHVoqJ0Yb6kXA-3" value="регуляторы ситеза и секреции инсулина" style="rounded=1;whiteSpace=wrap;html=1;labelBackgroundColor=none;fillColor=#FAE5C7;strokeColor=#0F8B8D;fontColor=#143642;" vertex="1" parent="1">
          <mxGeometry x="80" y="20" width="640" height="60" as="geometry" />
        </mxCell>
        <mxCell id="dMDlw6WgHVoqJ0Yb6kXA-4" value="GLUCOSE&amp;nbsp;" style="whiteSpace=wrap;html=1;labelBackgroundColor=none;fillColor=#FAE5C7;strokeColor=#0F8B8D;fontColor=#143642;" vertex="1" parent="1">
          <mxGeometry x="290" y="120" width="250" height="60" as="geometry" />
        </mxCell>
        <mxCell id="dMDlw6WgHVoqJ0Yb6kXA-5" value="Пептидые гормоны ЖКТ (инкретины),&lt;div&gt;которые реагируют на поступление&amp;nbsp;&lt;/div&gt;&lt;div&gt;пищи в просвет кишечника&lt;/div&gt;" style="whiteSpace=wrap;html=1;labelBackgroundColor=none;fillColor=#FAE5C7;strokeColor=#0F8B8D;fontColor=#143642;" vertex="1" parent="1">
          <mxGeometry x="277.5" y="230" width="275" height="120" as="geometry" />
        </mxCell>
        <mxCell id="dMDlw6WgHVoqJ0Yb6kXA-6" value="GIP (открыт первым)&lt;div&gt;&lt;span style=&quot;color: rgb(31, 31, 31); font-family: ElsevierGulliver, Georgia, &amp;quot;Times New Roman&amp;quot;, Times, STIXGeneral, &amp;quot;Cambria Math&amp;quot;, &amp;quot;Lucida Sans Unicode&amp;quot;, &amp;quot;Microsoft Sans Serif&amp;quot;, &amp;quot;Segoe UI Symbol&amp;quot;, &amp;quot;Arial Unicode MS&amp;quot;, serif, sans-serif; font-size: 16px; text-align: start;&quot;&gt;glucose-dependent insulinotropic polypeptide&lt;/span&gt;&lt;br&gt;&lt;/div&gt;" style="rounded=1;whiteSpace=wrap;html=1;labelBackgroundColor=none;fillColor=#FAE5C7;strokeColor=#0F8B8D;fontColor=#143642;" vertex="1" parent="1">
          <mxGeometry x="37.5" y="410" width="240" height="70" as="geometry" />
        </mxCell>
        <mxCell id="dMDlw6WgHVoqJ0Yb6kXA-7" value="their negative regulator dipeptidyl peptidase-4 (DPP4)." style="rounded=1;whiteSpace=wrap;html=1;labelBackgroundColor=none;fillColor=#FAE5C7;strokeColor=#0F8B8D;fontColor=#143642;" vertex="1" parent="1">
          <mxGeometry x="305" y="415" width="240" height="60" as="geometry" />
        </mxCell>
        <mxCell id="dMDlw6WgHVoqJ0Yb6kXA-8" value="&lt;font style=&quot;font-size: 19px;&quot; face=&quot;Verdana&quot;&gt;GLP-1&amp;nbsp;&lt;/font&gt;&lt;div style=&quot;font-size: 19px;&quot;&gt;&lt;font style=&quot;font-size: 19px;&quot; face=&quot;wpb-jBK0-t2eKOkV683j&quot;&gt;glucagon-like peptide 1&lt;/font&gt;&lt;/div&gt;" style="rounded=1;whiteSpace=wrap;html=1;labelBackgroundColor=none;fillColor=#FAE5C7;strokeColor=#0F8B8D;fontColor=#143642;" vertex="1" parent="1">
          <mxGeometry x="560" y="415" width="260" height="60" as="geometry" />
        </mxCell>
      </root>
    </mxGraphModel>
  </diagram>
</mxfile>
